<svg width="157" height="32" viewBox="0 0 157 32" fill="none" xmlns="http://www.w3.org/2000/svg">
<path d="M13.2367 7.64179V9.2452C12.1109 7.94883 10.4392 7.16418 8.15352 7.16418C3.68443 7.16418 0 11.0874 0 16.1706C0 21.2537 3.68443 25.177 8.15352 25.177C10.4392 25.177 12.1109 24.3923 13.2367 23.096V24.6994H18.3539V7.64179H13.2367ZM9.17697 20.3326C6.82303 20.3326 5.11727 18.7292 5.11727 16.1706C5.11727 13.6119 6.82303 12.0085 9.17697 12.0085C11.5309 12.0085 13.2367 13.6119 13.2367 16.1706C13.2367 18.7292 11.5309 20.3326 9.17697 20.3326Z" fill="url(#paint0_linear_34_22)"/>
<path d="M32.3086 7.16418C30.0229 7.16418 28.3513 7.94883 27.2255 9.2452V7.64179H22.1082V31.5224H27.2255V23.096C28.3513 24.3923 30.0229 25.177 32.3086 25.177C36.7777 25.177 40.4622 21.2537 40.4622 16.1706C40.4622 11.0874 36.7777 7.16418 32.3086 7.16418ZM31.2852 20.3326C28.9312 20.3326 27.2255 18.7292 27.2255 16.1706C27.2255 13.6119 28.9312 12.0085 31.2852 12.0085C33.6391 12.0085 35.3449 13.6119 35.3449 16.1706C35.3449 18.7292 33.6391 20.3326 31.2852 20.3326Z" fill="url(#paint1_linear_34_22)"/>
<path d="M45.9222 6.14073C47.5938 6.14073 48.9925 4.742 48.9925 3.07036C48.9925 1.39872 47.5938 0 45.9222 0C44.2505 0 42.8518 1.39872 42.8518 3.07036C42.8518 4.742 44.2505 6.14073 45.9222 6.14073ZM43.3635 24.6994H48.4808V7.64179H43.3635V24.6994Z" fill="url(#paint2_linear_34_22)"/>
<path d="M64.7457 7.64179V9.38166C63.6199 7.98294 61.9824 7.16418 59.7649 7.16418C54.9206 7.16418 51.3726 11.1215 51.3726 15.8294C51.3726 20.5373 54.9206 24.4947 59.7649 24.4947C61.9824 24.4947 63.6199 23.6759 64.7457 22.2772V23.8465C64.7457 26.2687 63.2788 27.4968 60.8907 27.4968C58.6391 27.4968 57.6498 26.5416 57.0016 25.3475L52.6349 27.8721C54.2042 30.6695 57.1722 32 60.7201 32C65.2575 32 69.7265 29.5778 69.7265 23.8465V7.64179H64.7457ZM60.6178 19.7868C58.1956 19.7868 56.4899 18.1834 56.4899 15.8294C56.4899 13.4755 58.1956 11.8721 60.6178 11.8721C63.04 11.8721 64.7457 13.4755 64.7457 15.8294C64.7457 18.1834 63.04 19.7868 60.6178 19.7868Z" fill="url(#paint3_linear_34_22)"/>
<path d="M85.8646 7.64179V9.2452C84.7388 7.94883 83.0672 7.16418 80.7814 7.16418C76.3124 7.16418 72.6279 11.0874 72.6279 16.1706C72.6279 21.2537 76.3124 25.177 80.7814 25.177C83.0672 25.177 84.7388 24.3923 85.8646 23.096V24.6994H90.9819V7.64179H85.8646ZM81.8049 20.3326C79.451 20.3326 77.7452 18.7292 77.7452 16.1706C77.7452 13.6119 79.451 12.0085 81.8049 12.0085C84.1588 12.0085 85.8646 13.6119 85.8646 16.1706C85.8646 18.7292 84.1588 20.3326 81.8049 20.3326Z" fill="url(#paint4_linear_34_22)"/>
<path d="M113.841 7.16418C111.418 7.16418 109.849 8.05117 108.894 9.41578C107.939 7.98294 106.438 7.16418 104.425 7.16418C102.139 7.16418 100.638 8.05117 99.8534 9.21109V7.64179H94.7361V24.6994H99.8534V15.0789C99.8534 13.0661 100.809 11.8721 102.514 11.8721C104.152 11.8721 104.971 12.9638 104.971 14.6695V24.6994H110.088V15.0789C110.088 13.0661 111.043 11.8721 112.749 11.8721C114.386 11.8721 115.205 12.9638 115.205 14.6695V24.6994H120.322V14.226C120.322 9.96162 117.764 7.16418 113.841 7.16418Z" fill="url(#paint5_linear_34_22)"/>
<path d="M128.392 18.2175H140.503C140.639 17.5693 140.708 16.887 140.708 16.1706C140.708 11.0192 137.023 7.16418 132.042 7.16418C126.652 7.16418 122.968 11.0874 122.968 16.1706C122.968 21.2537 126.584 25.177 132.418 25.177C135.659 25.177 138.183 23.9829 139.855 21.6631L135.761 19.3092C135.079 20.0597 133.885 20.6055 132.486 20.6055C130.61 20.6055 129.04 19.9915 128.392 18.2175ZM128.29 14.3966C128.767 12.6567 130.064 11.7015 132.008 11.7015C133.543 11.7015 135.079 12.4179 135.624 14.3966H128.29Z" fill="url(#paint6_linear_34_22)"/>
<path d="M147.788 12.6226C147.788 12.0085 148.334 11.6674 149.221 11.6674C150.347 11.6674 151.029 12.2814 151.507 13.1684L155.873 10.8145C154.441 8.39233 151.984 7.16418 149.221 7.16418C145.673 7.16418 142.534 9.04051 142.534 12.7591C142.534 18.661 150.927 17.6716 150.927 19.548C150.927 20.2303 150.313 20.6055 149.084 20.6055C147.583 20.6055 146.628 19.8891 146.185 18.5928L141.75 21.1173C143.08 23.8806 145.673 25.177 149.084 25.177C152.769 25.177 156.18 23.5053 156.18 19.5821C156.18 13.2708 147.788 14.5672 147.788 12.6226Z" fill="url(#paint7_linear_34_22)"/>
<defs>
<linearGradient id="paint0_linear_34_22" x1="44.0654" y1="11.3717" x2="147.832" y2="22.7434" gradientUnits="userSpaceOnUse">
<stop stop-color="#FF4001"/>
<stop offset="1" stop-color="#F87144"/>
</linearGradient>
<linearGradient id="paint1_linear_34_22" x1="44.0654" y1="11.3717" x2="147.832" y2="22.7434" gradientUnits="userSpaceOnUse">
<stop stop-color="#FF4001"/>
<stop offset="1" stop-color="#F87144"/>
</linearGradient>
<linearGradient id="paint2_linear_34_22" x1="44.0654" y1="11.3717" x2="147.832" y2="22.7434" gradientUnits="userSpaceOnUse">
<stop stop-color="#FF4001"/>
<stop offset="1" stop-color="#F87144"/>
</linearGradient>
<linearGradient id="paint3_linear_34_22" x1="44.0654" y1="11.3717" x2="147.832" y2="22.7434" gradientUnits="userSpaceOnUse">
<stop stop-color="#FF4001"/>
<stop offset="1" stop-color="#F87144"/>
</linearGradient>
<linearGradient id="paint4_linear_34_22" x1="44.0654" y1="11.3717" x2="147.832" y2="22.7434" gradientUnits="userSpaceOnUse">
<stop stop-color="#FF4001"/>
<stop offset="1" stop-color="#F87144"/>
</linearGradient>
<linearGradient id="paint5_linear_34_22" x1="44.0654" y1="11.3717" x2="147.832" y2="22.7434" gradientUnits="userSpaceOnUse">
<stop stop-color="#FF4001"/>
<stop offset="1" stop-color="#F87144"/>
</linearGradient>
<linearGradient id="paint6_linear_34_22" x1="44.0654" y1="11.3717" x2="147.832" y2="22.7434" gradientUnits="userSpaceOnUse">
<stop stop-color="#FF4001"/>
<stop offset="1" stop-color="#F87144"/>
</linearGradient>
<linearGradient id="paint7_linear_34_22" x1="44.0654" y1="11.3717" x2="147.832" y2="22.7434" gradientUnits="userSpaceOnUse">
<stop stop-color="#FF4001"/>
<stop offset="1" stop-color="#F87144"/>
</linearGradient>
</defs>
</svg>
